HIERARCHY
ROOT Hips
{
	OFFSET -0.001795 -0.223333 0.028219
	CHANNELS 6 Xposition Yposition Zposition Zrotation Yrotation Xrotation 
	JOINT LeftUpLeg
	{
		OFFSET 0.069520 -0.091406 -0.006815
		CHANNELS 3 Zrotation Yrotation Xrotation
		JOINT LeftLeg
		{
			OFFSET 0.034277 -0.375199 -0.004496
			CHANNELS 3 Zrotation Yrotation Xrotation
			JOINT LeftFoot
			{
				OFFSET -0.013596 -0.397961 -0.043693
				CHANNELS 3 Zrotation Yrotation Xrotation
				JOINT LeftToe
				{
					OFFSET 0.026358 -0.055791 0.119288
					CHANNELS 3 Zrotation Yrotation Xrotation
					End Site
					{
						OFFSET 0.000000 0.000000 0.000000
					}
				}
			}
		}
	}
	JOINT RightUpLeg
	{
		OFFSET -0.067670 -0.090522 -0.004320
		CHANNELS 3 Zrotation Yrotation Xrotation
		JOINT RightLeg
		{
			OFFSET -0.038290 -0.382569 -0.008850
			CHANNELS 3 Zrotation Yrotation Xrotation
			JOINT RightFoot
			{
				OFFSET 0.015774 -0.398415 -0.042312
				CHANNELS 3 Zrotation Yrotation Xrotation
				JOINT RightToe
				{
					OFFSET -0.025372 -0.048144 0.123348
					CHANNELS 3 Zrotation Yrotation Xrotation
					End Site
					{
						OFFSET 0.000000 0.000000 0.000000
					}
				}
			}
		}
	}
	JOINT Spine
	{
		OFFSET -0.002533 0.108963 -0.026696
		CHANNELS 3 Zrotation Yrotation Xrotation
		JOINT Spine1
		{
			OFFSET 0.005487 0.135180 0.001092
			CHANNELS 3 Zrotation Yrotation Xrotation
			JOINT Spine2
			{
				OFFSET 0.001457 0.052922 0.025425
				CHANNELS 3 Zrotation Yrotation Xrotation
				JOINT Neck
				{
					OFFSET -0.002778 0.213870 -0.042857
					CHANNELS 3 Zrotation Yrotation Xrotation
					JOINT Head
					{
						OFFSET 0.005152 0.064970 0.051349
						CHANNELS 3 Zrotation Yrotation Xrotation
						End Site
						{
							OFFSET 0.000000 0.000000 0.000000
						}
					}
				}
				JOINT LeftShoulder
				{
					OFFSET 0.078845 0.121749 -0.034090
					CHANNELS 3 Zrotation Yrotation Xrotation
					JOINT LeftArm
					{
						OFFSET 0.090977 0.030469 -0.008868
						CHANNELS 3 Zrotation Yrotation Xrotation
						JOINT LeftForeArm
						{
							OFFSET 0.259612 -0.012772 -0.027456
							CHANNELS 3 Zrotation Yrotation Xrotation
							JOINT LeftHand
							{
								OFFSET 0.249234 0.008986 -0.001171
								CHANNELS 3 Zrotation Yrotation Xrotation
								End Site
								{
									OFFSET 0.000000 0.000000 0.000000
								}
							}
						}
					}
				}
				JOINT RightShoulder
				{
					OFFSET -0.081759 0.118833 -0.038615
					CHANNELS 3 Zrotation Yrotation Xrotation
					JOINT RightArm
					{
						OFFSET -0.096012 0.032551 -0.009143
						CHANNELS 3 Zrotation Yrotation Xrotation
						JOINT RightForeArm
						{
							OFFSET -0.253742 -0.013329 -0.021401
							CHANNELS 3 Zrotation Yrotation Xrotation
							JOINT RightHand
							{
								OFFSET -0.255298 0.007772 -0.005559
								CHANNELS 3 Zrotation Yrotation Xrotation
								End Site
								{
									OFFSET 0.000000 0.000000 0.000000
								}
							}
						}
					}
				}
			}
		}
	}
}
MOTION
Frames: 15
Frame Time: 0.050000
0.001947 0.947420 -0.083095 -0.694274 8.287900 2.044882 -1.812818 -0.826369 -8.178382 2.923731 -2.713315 27.185190 2.490389 6.917417 4.195481 0.000000 0.000000 0.000000 4.679377 0.198391 -1.928298 -0.436418 0.290563 7.067433 -1.810478 -5.504986 3.172714 0.000000 0.000000 0.000000 -5.751616 0.074918 2.874831 7.306419 -0.906763 -26.065891 0.088315 -6.492336 29.421908 -2.407814 2.720437 -24.842522 0.000000 0.000000 0.000000 -1.203919 6.475130 -2.420625 -8.742140 -14.257287 -1.289348 -1.263084 5.864037 -0.285122 0.000000 0.000000 0.000000 -13.214056 1.348120 0.716792 13.427700 12.123581 -1.219669 0.018174 -5.292083 -0.150600 0.000000 0.000000 0.000000 
0.001886 0.948100 -0.084347 -0.626658 7.984768 1.610227 -1.696645 -0.868520 -8.561076 2.941548 -2.878243 28.736238 1.885106 6.458781 5.951056 0.000000 0.000000 0.000000 4.389410 0.179926 -1.772718 -0.437870 0.298889 7.255072 -1.630618 -5.220576 3.695043 0.000000 0.000000 0.000000 -6.047368 0.078374 3.082903 7.562833 -1.014120 -25.505608 0.181987 -6.463595 29.187618 -2.401427 2.664225 -23.890963 0.000000 0.000000 0.000000 -1.358410 6.929108 -2.604222 -9.530775 -13.769797 -1.322490 -1.339389 5.069457 -0.252360 0.000000 0.000000 0.000000 -13.424156 1.706900 0.838526 14.018468 12.196559 -1.222729 -0.104183 -5.823176 -0.157733 0.000000 0.000000 0.000000 
0.001871 0.948149 -0.085580 -0.192276 7.742257 1.458626 -1.900093 -0.911764 -8.818496 2.594131 -2.856469 29.852560 1.473522 6.053088 6.879293 0.000000 0.000000 0.000000 3.967805 0.205677 -1.947427 -0.962030 0.421969 8.001431 -1.499326 -4.867270 3.485617 0.000000 0.000000 0.000000 -6.315293 0.082065 2.928002 7.525399 -1.050322 -24.941781 0.067808 -6.224664 29.024069 -2.504114 2.719270 -22.987005 0.000000 0.000000 0.000000 -1.142385 7.105519 -2.649110 -9.840589 -13.227359 -1.336053 -1.443908 3.709767 -0.191749 0.000000 0.000000 0.000000 -13.317146 1.852527 0.871858 14.247775 11.962860 -1.237203 -0.113174 -4.988793 -0.133609 0.000000 0.000000 0.000000 
0.001795 0.947582 -0.086789 0.017972 8.067080 1.002064 -1.978532 -0.888970 -8.564509 2.664145 -2.997294 30.534448 1.084874 5.491330 7.173826 0.000000 0.000000 0.000000 3.598280 0.215850 -1.977456 -1.418455 0.530374 8.690218 -1.229884 -4.076434 2.981575 0.000000 0.000000 0.000000 -6.430813 0.078234 3.269634 7.423055 -1.048841 -24.626285 0.113184 -6.305964 28.776080 -2.561213 2.762296 -22.643404 0.000000 0.000000 0.000000 -0.589537 7.041921 -2.568660 -9.924239 -13.281664 -1.324478 -1.406869 2.429180 -0.128260 0.000000 0.000000 0.000000 -13.732151 1.754907 0.844926 14.580230 11.628162 -1.258478 0.030287 -3.932239 -0.112558 0.000000 0.000000 0.000000 
0.001765 0.947062 -0.088163 0.128905 8.709930 0.836587 -1.900780 -0.865330 -8.397471 2.892038 -3.140232 30.443677 0.917111 4.900836 6.352376 0.000000 0.000000 0.000000 3.423590 0.273939 -2.382997 -1.998806 0.675896 9.711160 -1.262352 -3.978304 2.428760 0.000000 0.000000 0.000000 -6.757997 0.080930 3.363864 7.593233 -1.105238 -24.375225 0.078013 -6.729544 28.582682 -2.689964 2.830185 -22.322390 0.000000 0.000000 0.000000 -0.190790 6.805522 -2.439941 -9.654543 -13.498790 -1.297484 -1.345294 1.094834 -0.062997 0.000000 0.000000 0.000000 -14.226217 1.537135 0.809086 14.729088 11.528106 -1.258884 -0.137213 -2.752306 -0.070904 0.000000 0.000000 0.000000 
0.001744 0.946293 -0.089411 0.275897 8.777805 0.577247 -1.816003 -0.860073 -8.369768 2.779558 -3.053731 30.034856 1.197912 5.096930 5.582998 0.000000 0.000000 0.000000 3.027593 0.305131 -2.629447 -2.096105 0.721586 10.435520 -1.266411 -3.932238 2.235341 0.000000 0.000000 0.000000 -6.975032 0.075269 3.079764 7.582971 -1.137248 -23.934799 0.096425 -6.721128 28.473880 -2.957147 2.987807 -21.231947 0.000000 0.000000 0.000000 -0.054889 6.439207 -2.292496 -9.230346 -13.028500 -1.280631 -1.186884 -0.546530 0.014704 0.000000 0.000000 0.000000 -13.867084 1.559629 0.805710 14.082808 10.869264 -1.273291 0.091192 -1.541576 -0.046757 0.000000 0.000000 0.000000 
0.001686 0.946354 -0.090604 0.249627 8.912068 0.655014 -1.700563 -0.834214 -8.202003 2.607418 -2.863886 28.912109 1.523368 5.377766 4.793077 0.000000 0.000000 0.000000 3.142299 0.346706 -2.944803 -2.095758 0.722409 10.525385 -1.492318 -4.451320 2.131572 0.000000 0.000000 0.000000 -6.628055 0.063075 2.717318 7.474840 -1.101202 -23.998453 0.057259 -6.878647 28.452623 -2.871024 2.905119 -20.227985 0.000000 0.000000 0.000000 0.094614 6.066954 -2.144999 -8.549982 -13.036099 -1.249475 -1.438904 -0.418038 0.007595 0.000000 0.000000 0.000000 -14.084776 1.422975 0.783776 13.328448 10.598745 -1.253612 -0.026812 -1.400407 -0.038480 0.000000 0.000000 0.000000 
0.001729 0.945361 -0.091757 0.206623 9.030040 0.575006 -1.786253 -0.786236 -7.753176 2.445214 -2.672989 27.720628 2.515491 6.874436 3.923170 0.000000 0.000000 0.000000 3.361755 0.392423 -3.271847 -1.930543 0.687999 10.609292 -1.848363 -5.320608 2.145756 0.000000 0.000000 0.000000 -6.403954 0.056690 2.725731 7.648847 -1.126513 -24.234828 -0.029205 -6.939495 28.574269 -3.418384 3.267644 -20.095968 0.000000 0.000000 0.000000 0.255797 5.974632 -2.097990 -8.301281 -13.189982 -1.239838 -1.638578 -0.016484 -0.013104 0.000000 0.000000 0.000000 -14.591732 0.928065 0.675178 13.025789 10.166716 -1.262193 0.062778 -1.054438 -0.031879 0.000000 0.000000 0.000000 
0.001669 0.945251 -0.093018 -0.102574 9.078743 0.811944 -1.479989 -0.723290 -7.330773 2.205433 -2.460551 26.583910 2.816658 7.414323 3.869336 0.000000 0.000000 0.000000 3.674668 0.428031 -3.519081 -1.766612 0.636163 10.124706 -2.025861 -5.824274 2.473432 0.000000 0.000000 0.000000 -5.765052 0.046781 2.567840 7.531503 -1.072471 -24.521121 -0.075995 -6.853343 28.469317 -3.581996 3.399162 -20.284517 0.000000 0.000000 0.000000 0.296536 5.778844 -2.023138 -7.852364 -13.628590 -1.218573 -1.761012 1.106270 -0.070170 0.000000 0.000000 0.000000 -14.981118 0.354514 0.536109 12.764829 9.754950 -1.268921 0.155353 -0.476650 -0.018105 0.000000 0.000000 0.000000 
0.001741 0.945900 -0.094405 -0.235713 9.441824 1.467966 -1.370498 -0.689730 -7.109557 2.140757 -2.306211 25.202257 3.156864 7.980762 3.671975 0.000000 0.000000 0.000000 3.834085 0.465123 -3.803239 -1.520178 0.547986 9.110602 -2.194785 -6.298182 2.845114 0.000000 0.000000 0.000000 -5.296339 0.043837 1.829933 7.318225 -0.975978 -24.998154 -0.250671 -7.011354 28.898280 -3.513738 3.373890 -20.643857 0.000000 0.000000 0.000000 -0.207316 5.718795 -2.046399 -6.782110 -14.672961 -1.199523 -2.277277 2.499919 -0.156253 0.000000 0.000000 0.000000 -14.831500 -0.139727 0.385853 12.248570 9.703424 -1.262588 0.409395 -0.220336 -0.017285 0.000000 0.000000 0.000000 
0.001746 0.946031 -0.095751 -0.613643 9.653051 1.696084 -1.001107 -0.653527 -6.910869 1.851887 -2.117454 24.221887 3.526560 8.601172 3.489171 0.000000 0.000000 0.000000 4.198498 0.453173 -3.676697 -0.751901 0.365170 8.133227 -2.349518 -6.818662 3.659084 0.000000 0.000000 0.000000 -4.827966 0.039025 1.622668 7.266016 -0.903420 -25.809259 -0.287421 -7.049768 29.415750 -3.728362 3.541248 -21.241100 0.000000 0.000000 0.000000 -0.612704 5.653227 -2.059859 -6.500147 -15.263379 -1.213014 -2.165019 3.836322 -0.225560 0.000000 0.000000 0.000000 -14.834530 -0.452097 0.272889 12.212184 10.111299 -1.262114 0.457553 -1.331590 -0.053815 0.000000 0.000000 0.000000 
0.001715 0.946464 -0.097186 -1.040957 9.679382 2.234130 -0.664173 -0.687892 -7.365238 1.412691 -1.956412 24.013899 3.829367 9.198552 3.584935 0.000000 0.000000 0.000000 4.930986 0.473118 -3.788810 -0.122609 0.229957 7.565202 -2.781403 -7.900413 4.070269 0.000000 0.000000 0.000000 -4.333502 0.040426 0.848045 7.249446 -0.877610 -26.097096 -0.384138 -7.064789 30.061647 -3.439227 3.364447 -21.435840 0.000000 0.000000 0.000000 -1.560124 5.908337 -2.243159 -5.887497 -15.750775 -1.227212 -1.643926 4.785783 -0.251486 0.000000 0.000000 0.000000 -14.474443 -0.874683 0.141785 12.207738 10.628225 -1.262646 0.246715 -2.370025 -0.077387 0.000000 0.000000 0.000000 
0.001744 0.946117 -0.098422 -1.114762 9.575562 2.151536 -0.897729 -0.684554 -7.260613 1.293467 -1.986631 24.742695 4.137421 9.972709 4.238658 0.000000 0.000000 0.000000 5.214418 0.439903 -3.537651 0.307820 0.140234 7.085435 -2.844074 -8.109886 4.425425 0.000000 0.000000 0.000000 -4.160946 0.036747 1.071005 7.192486 -0.851541 -26.294118 -0.367759 -6.880561 30.467696 -3.472259 3.406531 -21.358703 0.000000 0.000000 0.000000 -1.769074 6.276457 -2.404812 -5.904719 -16.086662 -1.245377 -0.936844 5.749504 -0.259401 0.000000 0.000000 0.000000 -14.037920 -0.815433 0.112994 12.138922 10.396579 -1.283463 0.295257 -3.235435 -0.105875 0.000000 0.000000 0.000000 
0.001729 0.945884 -0.099667 -1.364057 9.693521 2.425332 -1.025809 -0.703081 -7.416606 1.428148 -2.143015 25.742444 4.151086 10.026464 4.320041 0.000000 0.000000 0.000000 5.930743 0.459415 -3.648576 0.406124 0.117161 6.880630 -3.147140 -8.805657 4.435904 0.000000 0.000000 0.000000 -4.061091 0.039310 0.980088 7.395952 -0.878715 -26.581970 -0.391686 -6.994706 30.616027 -3.343983 3.321296 -21.703053 0.000000 0.000000 0.000000 -1.654237 6.781479 -2.586470 -6.359107 -16.550897 -1.269179 -0.933388 6.625356 -0.299635 0.000000 0.000000 0.000000 -14.404386 -0.909021 0.097073 12.846169 10.688963 -1.307426 0.123879 -4.076501 -0.121319 0.000000 0.000000 0.000000 
0.001781 0.946093 -0.100878 -1.275007 9.547083 2.368675 -1.502151 -0.775822 -7.915527 2.065261 -2.500939 27.104726 4.091150 10.163483 5.084985 0.000000 0.000000 0.000000 5.899673 0.404573 -3.292102 0.387709 0.118924 6.700532 -2.982814 -8.381007 4.059844 0.000000 0.000000 0.000000 -4.267025 0.041164 1.216602 7.380504 -0.877803 -26.561383 -0.283403 -6.966948 30.464455 -3.434710 3.372483 -22.267792 0.000000 0.000000 0.000000 -1.242315 7.174535 -2.692619 -7.576804 -16.571247 -1.286283 -0.673627 6.653388 -0.283898 0.000000 0.000000 0.000000 -14.589520 -0.667417 0.172370 14.016785 10.821291 -1.349753 0.447487 -4.577889 -0.156779 0.000000 0.000000 0.000000 
